HIERARCHY
ROOT Hips
{
  OFFSET 5.84602e-005 68.8428 3.50346
  CHANNELS 6 Xposition Yposition Zposition Zrotation Xrotation Yrotation
  JOINT Spine
  {
    OFFSET 0 8.597 -4.6522
    CHANNELS 3 Zrotation Xrotation Yrotation
    JOINT Spine1
    {
      OFFSET 0 7.8454 0.4098
      CHANNELS 3 Zrotation Xrotation Yrotation
      JOINT Spine2
      {
        OFFSET 0 9.7078 -2.1609
        CHANNELS 3 Zrotation Xrotation Yrotation
        JOINT Neck
        {
          OFFSET 0 21.8761 -0.4549
          CHANNELS 3 Zrotation Xrotation Yrotation
          JOINT Head
          {
            OFFSET 0 12.3537 3.3602
            CHANNELS 3 Zrotation Xrotation Yrotation
            End Site
            {
              OFFSET 0.0001 18.9506 0.5657
            }
          }
        }
        JOINT LeftShoulder
        {
          OFFSET 2.2086 21.1115 7.2329
          CHANNELS 3 Zrotation Xrotation Yrotation
          JOINT LeftArm
          {
            OFFSET 13.1193 3.0282 -4.8998
            CHANNELS 3 Zrotation Xrotation Yrotation
            JOINT LeftForeArm
            {
              OFFSET 27.4081 -0.0973053 -0.2375
              CHANNELS 3 Zrotation Xrotation Yrotation
              JOINT LeftHand
              {
                OFFSET 22.8641 0.0662994 -0.1369
                CHANNELS 3 Zrotation Xrotation Yrotation
                JOINT LeftHandIndex1
                {
                  OFFSET 8.8614 0.775009 2.4612
                  CHANNELS 3 Zrotation Xrotation Yrotation
                  JOINT LeftHandIndex2
                  {
                    OFFSET 3.3146 -0.808304 0.5841
                    CHANNELS 3 Zrotation Xrotation Yrotation
                    JOINT LeftHandIndex3
                    {
                      OFFSET 2.2628 -0.552002 0.3989
                      CHANNELS 3 Zrotation Xrotation Yrotation
                      End Site
                      {
                        OFFSET 1.6102 -0.4807 0.2612
                      }
                    }
                  }
                }
                JOINT LeftHandMiddle1
                {
                  OFFSET 8.9937 0.895004 0.2143
                  CHANNELS 3 Zrotation Xrotation Yrotation
                  JOINT LeftHandMiddle2
                  {
                    OFFSET 4.0984 0.0113983 -0.0242
                    CHANNELS 3 Zrotation Xrotation Yrotation
                    JOINT LeftHandMiddle3
                    {
                      OFFSET 2.2716 0.00689697 -0.0138001
                      CHANNELS 3 Zrotation Xrotation Yrotation
                      End Site
                      {
                        OFFSET 2.0404 -0.1441 0.0027
                      }
                    }
                  }
                }
                JOINT LeftHandRing1
                {
                  OFFSET 8.5234 0.597198 -2.0164
                  CHANNELS 3 Zrotation Xrotation Yrotation
                  JOINT LeftHandRing2
                  {
                    OFFSET 3.7188 -0.188293 -0.2328
                    CHANNELS 3 Zrotation Xrotation Yrotation
                    JOINT LeftHandRing3
                    {
                      OFFSET 2.1191 -0.106598 -0.1332
                      CHANNELS 3 Zrotation Xrotation Yrotation
                      End Site
                      {
                        OFFSET 1.8737 -0.2304 -0.0886
                      }
                    }
                  }
                }
                JOINT LeftHandPinky1
                {
                  OFFSET 7.9094 -0.601089 -3.4825
                  CHANNELS 3 Zrotation Xrotation Yrotation
                  JOINT LeftHandPinky2
                  {
                    OFFSET 2.2874 -0.477005 -0.6314
                    CHANNELS 3 Zrotation Xrotation Yrotation
                    JOINT LeftHandPinky3
                    {
                      OFFSET 1.6774 -0.349396 -0.4633
                      CHANNELS 3 Zrotation Xrotation Yrotation
                      End Site
                      {
                        OFFSET 1.4888 -0.4091 -0.3416
                      }
                    }
                  }
                }
                JOINT LeftHandThumb1
                {
                  OFFSET 1.833 -1.3875 1.3896
                  CHANNELS 3 Zrotation Xrotation Yrotation
                  JOINT LeftHandThumb2
                  {
                    OFFSET 3.4129 -1.121 2.5732
                    CHANNELS 3 Zrotation Xrotation Yrotation
                    JOINT LeftHandThumb3
                    {
                      OFFSET 2.2474 -0.804199 1.6192
                      CHANNELS 3 Zrotation Xrotation Yrotation
                      End Site
                      {
                        OFFSET 1.6527 -0.5689 1.1317
                      }
                    }
                  }
                }
              }
            }
          }
        }
        JOINT RightShoulder
        {
          OFFSET -2.2086 21.1115 7.2329
          CHANNELS 3 Zrotation Xrotation Yrotation
          JOINT RightArm
          {
            OFFSET -13.1216 3.0287 -4.9007
            CHANNELS 3 Zrotation Xrotation Yrotation
            JOINT RightForeArm
            {
              OFFSET -27.4081 -0.0973053 -0.2375
              CHANNELS 3 Zrotation Xrotation Yrotation
              JOINT RightHand
              {
                OFFSET -22.8641 0.0664063 -0.1369
                CHANNELS 3 Zrotation Xrotation Yrotation
                JOINT RightHandIndex1
                {
                  OFFSET -8.8614 0.774994 2.4612
                  CHANNELS 3 Zrotation Xrotation Yrotation
                  JOINT RightHandIndex2
                  {
                    OFFSET -3.3146 -0.808304 0.5841
                    CHANNELS 3 Zrotation Xrotation Yrotation
                    JOINT RightHandIndex3
                    {
                      OFFSET -2.2628 -0.552002 0.3989
                      CHANNELS 3 Zrotation Xrotation Yrotation
                      End Site
                      {
                        OFFSET -1.6102 -0.4807 0.2612
                      }
                    }
                  }
                }
                JOINT RightHandMiddle1
                {
                  OFFSET -8.9937 0.894989 0.2143
                  CHANNELS 3 Zrotation Xrotation Yrotation
                  JOINT RightHandMiddle2
                  {
                    OFFSET -4.0984 0.0113983 -0.0242
                    CHANNELS 3 Zrotation Xrotation Yrotation
                    JOINT RightHandMiddle3
                    {
                      OFFSET -2.2716 0.00691223 -0.0138001
                      CHANNELS 3 Zrotation Xrotation Yrotation
                      End Site
                      {
                        OFFSET -2.0404 -0.1441 0.0027
                      }
                    }
                  }
                }
                JOINT RightHandRing1
                {
                  OFFSET -8.5234 0.597198 -2.0164
                  CHANNELS 3 Zrotation Xrotation Yrotation
                  JOINT RightHandRing2
                  {
                    OFFSET -3.7188 -0.188309 -0.2328
                    CHANNELS 3 Zrotation Xrotation Yrotation
                    JOINT RightHandRing3
                    {
                      OFFSET -2.1191 -0.106598 -0.1332
                      CHANNELS 3 Zrotation Xrotation Yrotation
                      End Site
                      {
                        OFFSET -1.8737 -0.2304 -0.0886
                      }
                    }
                  }
                }
                JOINT RightHandPinky1
                {
                  OFFSET -7.9094 -0.601105 -3.4825
                  CHANNELS 3 Zrotation Xrotation Yrotation
                  JOINT RightHandPinky2
                  {
                    OFFSET -2.2874 -0.477005 -0.6314
                    CHANNELS 3 Zrotation Xrotation Yrotation
                    JOINT RightHandPinky3
                    {
                      OFFSET -1.6774 -0.349396 -0.4633
                      CHANNELS 3 Zrotation Xrotation Yrotation
                      End Site
                      {
                        OFFSET -1.4888 -0.4091 -0.3416
                      }
                    }
                  }
                }
                JOINT RightHandThumb1
                {
                  OFFSET -1.833 -1.38751 1.3896
                  CHANNELS 3 Zrotation Xrotation Yrotation
                  JOINT RightHandThumb2
                  {
                    OFFSET -3.41299 -1.12099 2.5732
                    CHANNELS 3 Zrotation Xrotation Yrotation
                    JOINT RightHandThumb3
                    {
                      OFFSET -2.24741 -0.804108 1.6192
                      CHANNELS 3 Zrotation Xrotation Yrotation
                      End Site
                      {
                        OFFSET -1.6527 -0.5689 1.1317
                      }
                    }
                  }
                }
              }
            }
          }
        }
      }
    }
  }
  JOINT RightUpLeg
  {
    OFFSET -9.1966 3.8861 -0.7581
    CHANNELS 3 Zrotation Xrotation Yrotation
    JOINT RightLeg
    {
      OFFSET -0.7359 -41.0265 0
      CHANNELS 3 Zrotation Xrotation Yrotation
      JOINT RightFoot
      {
        OFFSET 0 -40.2855 0
        CHANNELS 3 Zrotation Xrotation Yrotation
        JOINT RightToeBase
        {
          OFFSET 0 -5.6122 11.7359
          CHANNELS 3 Zrotation Xrotation Yrotation
          End Site
          {
            OFFSET 0 0 7.8731
          }
        }
      }
    }
  }
  JOINT LeftUpLeg
  {
    OFFSET 9.1965 3.8864 -0.7581
    CHANNELS 3 Zrotation Xrotation Yrotation
    JOINT LeftLeg
    {
      OFFSET 0.7359 -41.0268 0
      CHANNELS 3 Zrotation Xrotation Yrotation
      JOINT LeftFoot
      {
        OFFSET 0 -40.2855 0
        CHANNELS 3 Zrotation Xrotation Yrotation
        JOINT LeftToeBase
        {
          OFFSET 0 -5.6122 11.7359
          CHANNELS 3 Zrotation Xrotation Yrotation
          End Site
          {
            OFFSET 0 0 7.8731
          }
        }
      }
    }
  }
}
MOTION
Frames:	5
Frame Time:	0.0333333
-2.14722e-005 17.3951 9.95934 -5.084e-015 15.3999 180 0.0195143 -6.35512 -0.0869442 0.0295304 -12.7103 -0.17331 0.0295304 -12.7103 -0.17331 4.1643 8.55261 -0.437437 9.76822 -18.9555 -14.2363 -6.95311 0.243206 -1.13115 -70.9138 -0.915597 56.6295 -1.49934 0.186511 -9.27314 -6.24582 0.0670961 1.05681 4.42496e-008 4.84747e-009 6.0206e-007 4.42496e-008 4.84745e-009 6.0206e-007 4.42496e-008 4.84748e-009 6.0206e-007 4.42496e-008 4.84747e-009 6.0206e-007 -0.0146114 -8.92242e-005 3.82552e-007 -3.72613e-008 -4.91344e-007 5.70158e-007 4.42496e-008 4.84747e-009 6.0206e-007 -0.018733 -0.00117402 5.97166e-005 4.42562e-008 4.74905e-009 6.0206e-007 4.42496e-008 4.84747e-009 6.0206e-007 -0.0122797 -0.0032531 0.000678034 4.4267e-008 4.78276e-009 6.02059e-007 4.42496e-008 4.84747e-009 6.0206e-007 4.42496e-008 4.84745e-009 6.0206e-007 4.42496e-008 4.84748e-009 6.0206e-007 6.88838 0.235008 1.12799 68.4702 -2.05001 -54.7066 2.04565 -1.43388 15.227 7.39493 -0.455153 0.0314276 -1.42775e-007 -7.43456e-007 -7.51837e-007 -1.1422e-007 -5.94765e-007 -6.0147e-007 -5.71102e-008 -2.97382e-007 -3.00735e-007 -1.42775e-007 -7.43456e-007 -7.51837e-007 0.0149927 -9.19695e-005 1.50362e-006 -5.71117e-008 -2.97422e-007 -3.00696e-007 -1.42775e-007 -7.43456e-007 -7.51837e-007 0.0189694 -0.00118914 -5.8417e-005 -5.71147e-008 -2.97432e-007 -3.00685e-007 -1.42775e-007 -7.43456e-007 -7.51837e-007 0.0122966 -0.0032552 -0.000678371 -1.19763e-007 -1.42606e-008 -5.80592e-007 -1.42775e-007 -7.43456e-007 -7.51837e-007 -1.1422e-007 -5.94765e-007 -6.0147e-007 -5.71102e-008 -2.97382e-007 -3.00735e-007 -37.859 -20.7895 -31.2601 -144.797 39.5404 159.346 -11.8643 62.4425 -7.75239 8.25364e-007 9.79204e-008 -1.75447e-007 37.8535 -20.7915 31.2545 144.795 39.5396 -159.35 11.8612 62.442 7.75152 6.29493e-007 -1.74867e-006 -3.46612e-007 
-1.87338e-005 17.3098 9.91724 -5.03122e-015 15.7997 180 0.0195144 -6.3551 -0.086944 0.0295304 -12.7103 -0.17331 0.0295304 -12.7103 -0.17331 4.13792 9.24728 -0.481914 9.72986 -18.8559 -14.1707 -5.89124 0.66146 -2.27297 -71.4534 -1.58486 57.2549 -3.00196 0.407379 -10.5449 -5.49092 0.148294 2.11513 -2.84649e-009 -6.02089e-007 4.46993e-009 4.38819e-008 4.46994e-009 6.02089e-007 -4.67283e-008 -6.06559e-007 -5.97619e-007 -2.84649e-009 -6.02089e-007 4.46993e-009 -0.0146204 -8.82901e-005 8.31002e-007 -4.67236e-008 -6.06483e-007 -5.97696e-007 -2.84649e-009 -6.02089e-007 4.46993e-009 -0.0187569 -0.00117574 5.92903e-005 2.88931e-008 -1.04498e-007 -5.61028e-007 -2.84649e-009 -6.02089e-007 4.46993e-009 -0.0122857 -0.00325119 0.000677961 2.9429e-008 -1.04705e-007 -5.6097e-007 -2.84649e-009 -6.02089e-007 4.46993e-009 4.38819e-008 4.46994e-009 6.02089e-007 -4.67283e-008 -6.06559e-007 -5.97619e-007 5.76504 0.644149 2.27064 66.606 -3.89664 -53.4636 4.2572 -2.598 22.5071 7.79353 -0.910308 0.066043 -2.41701e-007 3.15531e-007 -2.06152e-006 -6.06023e-008 8.9949e-007 -1.46579e-006 -4.52748e-008 -1.4599e-007 -1.48934e-007 -2.41701e-007 3.15531e-007 -2.06152e-006 0.0150219 -9.01986e-005 -1.68076e-006 -4.52744e-008 -1.46009e-007 -1.48915e-007 -2.41701e-007 3.15531e-007 -2.06152e-006 0.018993 -0.00118929 -6.11652e-005 -4.52756e-008 -1.46014e-007 -1.48909e-007 -2.41701e-007 3.15531e-007 -2.06152e-006 0.0122621 -0.00324511 -0.000676346 -4.52777e-008 -1.46006e-007 -1.48917e-007 -2.41701e-007 3.15531e-007 -2.06152e-006 -6.06023e-008 8.9949e-007 -1.46579e-006 -4.52748e-008 -1.4599e-007 -1.48934e-007 -38.1896 -20.5066 -31.2215 -144.79 39.545 159.343 -12.6685 62.4378 -7.20491 -3.52245e-007 -1.71571e-007 -1.6503e-006 38.1832 -20.5086 31.2148 144.788 39.5444 -159.346 12.6639 62.4369 7.20639 -3.97569e-015 6.36111e-015 -4.77083e-015 
-1.67412e-005 17.2247 9.87537 -4.97823e-015 16.1995 180 0.0195144 -6.35513 -0.0869441 0.0295304 -12.7103 -0.17331 0.0295304 -12.7103 -0.17331 4.11205 9.94212 -0.52617 9.6914 -18.7564 -14.1051 -4.8177 1.05966 -3.42616 -71.9865 -2.26074 57.8749 -4.50625 0.662717 -11.8163 -4.73607 0.243627 3.17451 -1.86361e-016 0 9.93923e-017 -1.2424e-016 -1.59028e-015 -0 -3.72721e-017 -1.59028e-015 -9.93923e-017 -1.86361e-016 0 9.93923e-017 -0.0146101 -8.92217e-005 7.82258e-007 -7.05192e-008 -5.07003e-007 -4.06417e-008 -1.86361e-016 0 9.93923e-017 -0.0187179 -0.00117407 5.86015e-005 7.45443e-017 3.18055e-015 -1.98785e-016 -1.86361e-016 0 9.93923e-017 -0.0122915 -0.00325357 0.000678307 2.85753e-016 1.59028e-015 -1.98785e-016 -1.86361e-016 0 9.93923e-017 -1.2424e-016 -1.59028e-015 -0 -3.72721e-017 -1.59028e-015 -9.93923e-017 4.62983 1.03197 3.42509 64.7714 -5.78867 -52.2744 6.88573 -2.91981 29.6776 8.19262 -1.36541 0.103846 -4.77083e-015 3.18055e-015 3.18055e-015 -1.59028e-015 3.18055e-015 3.18055e-015 -3.18055e-015 0 -3.18055e-015 -4.77083e-015 3.18055e-015 3.18055e-015 0.0149836 -8.90889e-005 -5.58187e-006 -1.59028e-015 6.36111e-015 -3.18055e-015 -4.77083e-015 3.18055e-015 3.18055e-015 0.0190136 -0.00119252 -5.70748e-005 5.29669e-031 3.18055e-015 -9.54166e-015 -4.77083e-015 3.18055e-015 3.18055e-015 0.0122304 -0.00324048 -0.000672372 4.77083e-015 -3.18055e-015 6.36111e-015 -4.77083e-015 3.18055e-015 3.18055e-015 -1.59028e-015 3.18055e-015 3.18055e-015 -3.18055e-015 0 -3.18055e-015 -38.52 -20.2238 -31.181 -144.783 39.5498 159.339 -13.4723 62.4295 -6.65769 1.00173e-006 1.84793e-007 6.48138e-007 38.5124 -20.2259 31.1732 144.781 39.5491 -159.343 13.4662 62.4283 6.66168 -1.64986e-006 1.97818e-007 3.536e-007 
-1.47262e-005 17.1399 9.83373 -4.92501e-015 16.5995 180 0.0195144 -6.35512 -0.0869439 0.0295303 -12.7103 -0.17331 0.0295304 -12.7103 -0.17331 4.08661 10.637 -0.570184 9.65283 -18.6568 -14.0394 -3.73314 1.4371 -4.59007 -72.513 -2.94295 58.4895 -6.01064 0.952504 -13.0858 -3.98169 0.35311 4.23449 -4.33311e-008 -3.751e-009 -6.02132e-007 1.98859e-008 -9.4917e-008 -5.54666e-007 -1.5308e-007 -5.18468e-007 -1.24798e-006 -4.33311e-008 -3.751e-009 -6.02132e-007 -0.0145905 -8.9057e-005 -2.06927e-006 -8.6664e-008 -7.34864e-009 -1.20426e-006 -4.33311e-008 -3.751e-009 -6.02132e-007 -0.0187563 -0.00117683 5.7731e-005 -1.51503e-007 -5.18164e-007 -1.24807e-006 -4.33311e-008 -3.751e-009 -6.02132e-007 -0.0122538 -0.00324523 0.000672881 -8.66971e-008 -7.37289e-009 -1.20426e-006 -4.33311e-008 -3.751e-009 -6.02132e-007 1.98859e-008 -9.4917e-008 -5.54666e-007 -1.5308e-007 -5.18468e-007 -1.24798e-006 3.48348 1.39781 4.59062 62.9659 -7.72121 -51.1401 9.53428 -2.91114 36.8563 8.59229 -1.82042 0.144836 9.00099e-007 1.65703e-006 1.70999e-006 6.00066e-007 1.10469e-006 1.13999e-006 1.20013e-006 2.20938e-006 2.27999e-006 9.00099e-007 1.65703e-006 1.70999e-006 0.0149691 -8.75581e-005 -1.90309e-006 8.38105e-007 1.74059e-006 2.08656e-006 9.00099e-007 1.65703e-006 1.70999e-006 0.0190135 -0.00119087 -5.74422e-005 8.38477e-007 1.74056e-006 2.08649e-006 9.00099e-007 1.65703e-006 1.70999e-006 0.0122895 -0.00324961 -0.00067679 1.20014e-006 2.20964e-006 2.27972e-006 9.00099e-007 1.65703e-006 1.70999e-006 6.00066e-007 1.10469e-006 1.13999e-006 1.20013e-006 2.20938e-006 2.27999e-006 -38.8499 -19.9414 -31.1388 -144.776 39.5545 159.336 -14.2757 62.4178 -6.11088 8.24721e-007 9.93167e-008 -1.77463e-007 38.8412 -19.9436 31.1299 144.774 39.5538 -159.34 14.2681 62.4162 6.11727 -3.7622e-007 -1.56342e-006 -9.96746e-007 
-1.27049e-005 17.0554 9.79234 -4.87156e-015 16.9995 180 0.0195143 -6.35515 -0.0869441 0.0295304 -12.7103 -0.17331 0.0295304 -12.7103 -0.17331 4.0617 11.332 -0.614014 9.61416 -18.5573 -13.9736 -2.63829 1.79324 -5.76396 -73.0329 -3.63129 59.0988 -7.51348 1.2766 -14.3516 -3.22833 0.476719 5.29462 -1.2424e-017 1.59028e-015 -3.97569e-016 -4.31483e-008 -3.41263e-009 -6.02146e-007 -1.86361e-016 -1.59028e-015 -9.93923e-017 -1.2424e-017 1.59028e-015 -3.97569e-016 -0.0146046 -8.81495e-005 -1.17487e-007 -1.2424e-016 1.59028e-015 1.98785e-016 -1.2424e-017 1.59028e-015 -3.97569e-016 -0.0187221 -0.00117435 6.00244e-005 -3.6391e-008 -2.11083e-007 2.53349e-007 -1.2424e-017 1.59028e-015 -3.97569e-016 -0.0122491 -0.00324134 0.000675738 3.72721e-017 -2.54444e-014 -0 -1.2424e-017 1.59028e-015 -3.97569e-016 -4.31483e-008 -3.41263e-009 -6.02146e-007 -1.86361e-016 -1.59028e-015 -9.93923e-017 2.32679 1.74106 5.76642 61.189 -9.68933 -50.0614 12.298 -1.83494 43.7365 8.99252 -2.27528 0.189037 0 0 -6.36111e-015 0 0 -9.54166e-015 -1.59028e-015 0 -1.27222e-014 0 0 -6.36111e-015 0.0150459 -9.13664e-005 -2.9599e-006 1.59028e-015 -1.59028e-015 9.54166e-015 0 0 -6.36111e-015 0.0190091 -0.00119491 -5.6624e-005 -6.36111e-015 3.18055e-015 -0 0 0 -6.36111e-015 0.0122355 -0.00324347 -0.000671403 4.77083e-015 3.18055e-015 3.18055e-015 0 0 -6.36111e-015 0 0 -9.54166e-015 -1.59028e-015 0 -1.27222e-014 -39.1793 -19.6593 -31.0949 -144.769 39.5592 159.333 -15.0785 62.4025 -5.56466 -2.20479e-006 1.27711e-006 -1.46516e-006 39.1697 -19.6614 31.0848 144.767 39.5586 -159.336 15.0694 62.4007 5.5735 1.00264e-006 -1.85978e-007 6.46376e-007 
